<svg 
    xmlns="http://www.w3.org/2000/svg" 
    viewBox="0 0 64 64" 
    width="64" 
    height="64" 
    fill="none">
  <!-- Sun -->
  <circle cx="16" cy="16" r="6" fill="#FFD700" />
  <line x1="16" y1="3" x2="16" y2="9" stroke="#FFD700" stroke-width="2"/>
  <line x1="16" y1="23" x2="16" y2="29" stroke="#FFD700" stroke-width="2"/>
  <line x1="3" y1="16" x2="9" y2="16" stroke="#FFD700" stroke-width="2"/>
  <line x1="23" y1="16" x2="29" y2="16" stroke="#FFD700" stroke-width="2"/>
  <line x1="8" y1="8" x2="12" y2="12" stroke="#FFD700" stroke-width="2"/>
  <line x1="20" y1="20" x2="24" y2="24" stroke="#FFD700" stroke-width="2"/>
  <line x1="8" y1="24" x2="12" y2="20" stroke="#FFD700" stroke-width="2"/>
  <line x1="20" y1="12" x2="24" y2="8" stroke="#FFD700" stroke-width="2"/>

  <!-- Cloud -->
  <ellipse cx="40" cy="30" rx="12" ry="8" fill="#B0C4DE" />
  <ellipse cx="34" cy="28" rx="10" ry="7" fill="#B0C4DE" />
  <ellipse cx="46" cy="28" rx="10" ry="7" fill="#B0C4DE" />

  <!-- Raindrops -->
  <path d="M36 40 C37 42, 35 44, 36 46 C37 44, 38 42, 36 40" fill="#87CEFA"/>
  <path d="M44 40 C45 42, 43 44, 44 46 C45 44, 46 42, 44 40" fill="#87CEFA"/>
</svg>
